<?xml version="1.0" encoding="UTF-8" standalone="no"?>
<!DOCTYPE svg PUBLIC "-//W3C//DTD SVG 1.1//EN" "http://www.w3.org/Graphics/SVG/1.1/DTD/svg11.dtd">
<svg width="100%" height="100%" viewBox="0 0 1233 1233" version="1.1" xmlns="http://www.w3.org/2000/svg" xmlns:xlink="http://www.w3.org/1999/xlink" xml:space="preserve" xmlns:serif="http://www.serif.com/" style="fill-rule:evenodd;clip-rule:evenodd;stroke-linejoin:round;stroke-miterlimit:2;">
    <g transform="matrix(1,0,0,1,-686.796,-1193.71)">
        <path d="M1065.85,1762.31C1028.03,1747.43 984.322,1735.75 932.582,1728.73C834.464,1715.43 753.447,1729.65 686.796,1759.73L686.796,2118.18C686.796,2288.26 824.877,2426.34 994.954,2426.34L1611.27,2426.34C1781.35,2426.34 1919.43,2288.26 1919.43,2118.18L1919.43,1987.23C1870.62,2007.71 1812.68,2025.89 1743.94,2040.52C1667.33,2056.82 1604.97,2062.12 1552.78,2059.21L1558.19,2127.64C1558.19,2188.79 1500.05,2238.44 1428.43,2238.44L1168.93,2238.44C1097.32,2238.44 1039.18,2188.79 1039.18,2127.64C1039.18,2127.64 1053.26,1934.78 1065.85,1762.31Z" style="fill:url(#_Linear1);"/>
    </g>
    <g transform="matrix(1,0,0,1,-686.796,-1193.71)">
        <path d="M1919.43,1987.23L1919.43,1501.87C1919.43,1331.79 1781.35,1193.71 1611.27,1193.71L994.954,1193.71C824.877,1193.71 686.796,1331.79 686.796,1501.87L686.796,1759.73C753.447,1729.65 834.464,1715.43 932.582,1728.73C1350.66,1785.42 1244.37,2146.81 1743.94,2040.52C1812.68,2025.89 1870.62,2007.71 1919.43,1987.23Z" style="fill:url(#_Linear2);"/>
    </g>
    <g transform="matrix(1,0,0,0.853969,-1744.37,-658.636)">
        <path d="M2123.43,1440.62C2110.84,1642.57 2096.76,1868.41 2096.76,1868.41C2096.76,1940.03 2154.9,1998.16 2226.51,1998.16L2486.01,1998.16C2557.62,1998.16 2615.76,1940.03 2615.76,1868.41L2610.35,1788.28C2364.33,1772.21 2344.34,1542.43 2123.43,1440.62Z" style="fill:rgb(72,103,79);"/>
        <path d="M2127.82,1427.54C2240.06,1479.27 2301.46,1563.19 2365.84,1636.53C2427.31,1706.55 2491.7,1766.46 2611.02,1774.25C2617.02,1774.64 2621.84,1780.16 2622.32,1787.18L2627.72,1867.31C2627.75,1867.68 2627.76,1868.05 2627.76,1868.41C2627.76,1947.13 2564.72,2012.22 2486.01,2012.22L2226.51,2012.22C2147.79,2012.22 2084.76,1947.13 2084.76,1868.41C2084.76,1868.07 2084.77,1867.73 2084.79,1867.39C2084.79,1867.39 2098.87,1641.55 2111.46,1439.59C2111.74,1435.13 2113.81,1431.1 2117.04,1428.72C2120.27,1426.34 2124.27,1425.9 2127.82,1427.54ZM2134.18,1461.04C2122.28,1652.07 2109.49,1857.18 2108.76,1868.92C2109.03,1933.19 2162.16,1984.11 2226.51,1984.11L2486.01,1984.11C2550.34,1984.11 2603.46,1933.22 2603.76,1868.95C2603.76,1868.95 2599.21,1801.49 2599.21,1801.49C2479.16,1790.51 2412.55,1728.94 2349.11,1656.67C2289.72,1589.03 2233.33,1511.53 2134.18,1461.04Z" style="fill:rgb(72,103,79);"/>
    </g>
    <g transform="matrix(1.04643,0,0,0.883261,-1853.65,-707.872)">
        <path d="M2610.35,1788.28L2566.16,1133.16C2566.16,1061.55 2557.62,1003.41 2486.01,1003.41L2226.51,1003.41C2156.39,1003.41 2143.35,1055.75 2142.83,1125.16C2142.81,1128.2 2142.71,1131.24 2142.52,1134.28C2140.88,1160.56 2132.55,1294.32 2123.43,1440.62C2344.34,1542.43 2364.33,1772.21 2610.35,1788.28Z" style="fill:rgb(255,205,151);"/>
    </g>
    <defs>
        <linearGradient id="_Linear1" x1="0" y1="0" x2="1" y2="0" gradientUnits="userSpaceOnUse" gradientTransform="matrix(1151.5,509.316,-509.316,1151.5,705.639,1773.64)"><stop offset="0" style="stop-color:rgb(72,103,79);stop-opacity:1"/><stop offset="1" style="stop-color:rgb(170,193,175);stop-opacity:1"/></linearGradient>
        <linearGradient id="_Linear2" x1="0" y1="0" x2="1" y2="0" gradientUnits="userSpaceOnUse" gradientTransform="matrix(-1286.84,-175.736,175.736,-1286.84,1965.09,1751.48)"><stop offset="0" style="stop-color:rgb(249,222,193);stop-opacity:1"/><stop offset="1" style="stop-color:rgb(237,154,66);stop-opacity:1"/></linearGradient>
    </defs>
</svg>
